<svg width="30" height="32" viewBox="0 0 30 32" fill="none" xmlns="http://www.w3.org/2000/svg">
<path d="M6.36 31.76C6.36 31.4133 6.29333 31.24 6.16 31.24L5.24 31.68C5.24 31.4933 5.13333 31.36 4.92 31.28L4.6 31.24C4.38667 31.24 4.12 31.3333 3.8 31.52C3.74667 31.3867 3.68 31.2533 3.6 31.12C3.52 30.9867 3.45333 30.8667 3.4 30.76C3.05333 30.0933 2.70667 29.36 2.36 28.56C2.04 27.7333 1.73333 26.9467 1.44 26.2C1.17333 25.4533 0.96 24.8667 0.8 24.44C0.693333 24.0933 0.573333 23.5733 0.44 22.88C0.306667 22.1867 0.173333 21.3067 0.0400001 20.24C0.333333 20.4267 0.56 20.52 0.72 20.52C0.906667 20.52 1.08 20.24 1.24 19.68C1.32 19.7867 1.46667 19.84 1.68 19.84C1.84 19.84 1.96 19.7867 2.04 19.68L2.68 18.72L3.4 18.96H3.44C3.49333 18.96 3.54667 18.9333 3.6 18.88C3.65333 18.8267 3.73333 18.7733 3.84 18.72C4.05333 18.5867 4.21333 18.52 4.32 18.52L4.44 18.56C5.10667 18.88 5.53333 19.4667 5.72 20.32C6.2 22.3467 6.68 23.36 7.16 23.36C7.64 23.36 8.2 22.8533 8.84 21.84C9.16 21.3333 9.48 20.7467 9.8 20.08C10.1467 19.4133 10.4933 18.6667 10.84 17.84C10.8933 18.16 10.9467 18.32 11 18.32C11.1333 18.32 11.36 17.9867 11.68 17.32C12.0267 16.6533 12.5733 15.7333 13.32 14.56C13.7467 13.84 14.28 13.0267 14.92 12.12C15.5867 11.2133 16.2933 10.28 17.04 9.32C17.7867 8.36 18.5067 7.45333 19.2 6.6C19.92 5.74667 20.56 5.01333 21.12 4.4C21.68 3.78666 22.0933 3.38667 22.36 3.2C23.3733 2.50667 24.1733 1.84 24.76 1.2C24.7333 1.38666 24.6933 1.56 24.64 1.72C24.6133 1.85333 24.6 1.94667 24.6 2C24.6 2.10666 24.6533 2.16 24.76 2.16L25.88 1.6V1.76C25.88 1.97333 25.9333 2.08 26.04 2.08C26.12 2.08 26.28 1.96 26.52 1.72C26.76 1.48 26.8933 1.30667 26.92 1.2L26.84 1.76L28.2 0.96L27.88 1.68C28.3067 1.38667 28.6133 1.24 28.8 1.24C28.9067 1.24 28.9867 1.30666 29.04 1.44C29.0933 1.54667 29.12 1.65333 29.12 1.76C29.12 1.92 29.0533 2.10666 28.92 2.32C28.7867 2.53333 28.6133 2.78667 28.4 3.08C28.24 3.29333 27.9733 3.61333 27.6 4.04C27.2533 4.44 26.72 5.04 26 5.84C25.28 6.61333 24.32 7.69333 23.12 9.08C22.8 9.42667 22.3067 10.04 21.64 10.92C20.9733 11.7733 20.2133 12.7733 19.36 13.92C18.5333 15.04 17.7067 16.1733 16.88 17.32C16.0533 18.4667 15.32 19.5067 14.68 20.44C14.04 21.3467 13.5867 22.0267 13.32 22.48L10.84 26.68C10.3067 27.5867 9.86667 28.3333 9.52 28.92C9.17333 29.48 8.90667 29.8667 8.72 30.08C8.32 30.56 7.88 30.9867 7.4 31.36L7.04 31.16L6.72 31.36L6.36 31.76Z" fill="#007A33"/>
</svg>
