<svg aria-hidden="true" xmlns="http://www.w3.org/2000/svg" xmlns:xlink="http://www.w3.org/1999/xlink"><symbol fill="none" viewBox="0 0 33 27" id="arrow" xmlns="http://www.w3.org/2000/svg"><path d="m18.818 26.98-2.857-2.857 8.465-8.4H.148v-4.04h24.278l-8.465-8.4L18.818.426l13.3 13.277-13.3 13.277Z" fill="currentColor"/></symbol><symbol fill="none" viewBox="0 0 41 41" id="carbon" xmlns="http://www.w3.org/2000/svg"><g clip-path="url(#ba)" fill="currentColor"><path d="M11.5 31.4c.643 0 1.167.538 1.167 1.2 0 .663.522 1.2 1.166 1.2.645 0 1.167-.537 1.167-1.2 0-1.985-1.57-3.6-3.5-3.6S8 30.615 8 32.6v4.8c0 1.985 1.57 3.6 3.5 3.6s3.5-1.615 3.5-3.6c0-.663-.522-1.2-1.167-1.2-.644 0-1.166.537-1.166 1.2 0 .662-.524 1.2-1.167 1.2s-1.167-.538-1.167-1.2v-4.8c0-.662.524-1.2 1.167-1.2ZM20.5 29c-1.93 0-3.5 1.615-3.5 3.6v4.8c0 1.985 1.57 3.6 3.5 3.6s3.5-1.615 3.5-3.6v-4.8c0-1.985-1.57-3.6-3.5-3.6Zm1.167 8.4c0 .662-.524 1.2-1.167 1.2s-1.167-.538-1.167-1.2v-4.8c0-.662.524-1.2 1.167-1.2s1.167.538 1.167 1.2v4.8ZM32 35.273C32 33.468 30.654 32 29 32s-3 1.468-3 3.273v.409c0 .678.504 1.227 1.125 1.227s1.125-.55 1.125-1.227v-.41c0-.45.336-.817.75-.817.413 0 .75.366.75.818 0 .328-.16.637-.419.806l-2.142 1.402c-.733.48-1.189 1.358-1.189 2.292 0 .678.504 1.227 1.125 1.227h3.75c.621 0 1.125-.55 1.125-1.227 0-.678-.504-1.228-1.125-1.228h-.939l.553-.361c.932-.61 1.511-1.725 1.511-2.911ZM34.333 11.09a8.804 8.804 0 0 0 .236-2.03c0-4.995-4.148-9.06-9.246-9.06a9.326 9.326 0 0 0-5.008 1.449 9.192 9.192 0 0 0-2.668 2.576 7.663 7.663 0 0 0-3.578-.873c-4.212 0-7.638 3.357-7.638 7.484 0 .161.006.323.018.485C2.799 11.682 0 14.784 0 18.515 0 22.642 3.426 26 7.637 26h25.726C37.573 26 41 22.642 41 18.515c0-3.805-2.912-6.956-6.667-7.425Z"/></g><defs><clipPath id="ba"><path fill="currentColor" d="M0 0h41v41H0z"/></clipPath></defs></symbol><symbol fill="none" viewBox="0 0 36 41" id="community" xmlns="http://www.w3.org/2000/svg"><path d="M27.166 19c-.298 0-.596-.114-.824-.342l-4.667-4.667A1.165 1.165 0 0 1 22.5 12h1.167v-1.167c0-1.93-1.57-3.5-3.5-3.5a1.166 1.166 0 1 1 0-2.333h4.666a5.84 5.84 0 0 1 5.834 5.833V12h1.166a1.165 1.165 0 0 1 .825 1.992l-4.667 4.666a1.163 1.163 0 0 1-.825.342ZM14.833 36h-4.666a5.84 5.84 0 0 1-5.833-5.833V29H3.167a1.165 1.165 0 0 1-.825-1.992l4.667-4.666a1.166 1.166 0 0 1 1.65 0l4.666 4.666A1.166 1.166 0 0 1 12.5 29h-1.167v1.167c0 1.93 1.57 3.5 3.5 3.5a1.166 1.166 0 1 1 0 2.333ZM9 10A5 5 0 1 0 9 0a5 5 0 0 0 0 10ZM8.5 10C3.814 10 0 13.926 0 18.75 0 19.44.543 20 1.214 20h14.572c.67 0 1.214-.56 1.214-1.25C17 13.926 13.186 10 8.5 10ZM28 32a5 5 0 1 0 0-10 5 5 0 0 0 0 10Z" fill="currentColor"/><path d="M27.5 31c-4.686 0-8.5 3.926-8.5 8.75 0 .69.543 1.25 1.214 1.25h14.572c.67 0 1.214-.56 1.214-1.25 0-4.824-3.814-8.75-8.5-8.75Z" fill="currentColor"/></symbol><symbol fill="none" viewBox="0 0 51 42" id="dec" xmlns="http://www.w3.org/2000/svg"><path fill-rule="evenodd" clip-rule="evenodd" d="M0 42h14.3l15.37-21L14.3 0H0l15.37 21L0 42Zm21.33 0L36.7 21 21.33 0h14.3L51 21 35.63 42h-14.3Z" fill="currentColor"/></symbol><symbol fill="none" viewBox="0 0 41 41" id="improvement" xmlns="http://www.w3.org/2000/svg"><g clip-path="url(#ea)" fill="currentColor"><path d="M17 41v-3.734c-2.666 0-4.834-2.185-4.834-4.871 0-2.687 2.168-4.871 4.834-4.871v-3.653h-6.755l.574-1.627c.092-.258.138-.53.138-.809A2.43 2.43 0 0 0 8.54 19a2.43 2.43 0 0 0-2.279 3.244l.575 1.627H0C.6 32.97 7.969 40.396 17 41Z"/><path d="M8.605 17.125A4.878 4.878 0 0 1 13.476 22h3.653v-6.812l1.627.58c1.5.534 3.243-.678 3.244-2.299-.001-1.622-1.743-2.843-3.244-2.298l-1.627.58V5C8.03 5.605.604 12.893 0 22h3.734a4.878 4.878 0 0 1 4.871-4.875ZM36 24h-3.615c0 2.666-2.199 4.834-4.903 4.834-2.703 0-4.902-2.168-4.902-4.834h-3.677v6.756l-1.638-.575C15.75 29.644 14 30.85 14 32.46c-.001 1.608 1.751 2.816 3.265 2.279l1.638-.575V41c9.159-.6 16.489-7.969 17.097-17Z"/><path d="M36.048 9.87V4.976h-4.87c0-2.7-2.185-4.976-4.872-4.976-2.686 0-4.87 2.277-4.87 4.976H19v3.67c2.686 0 4.87 2.195 4.87 4.895 0 2.7-2.184 4.894-4.87 4.894v3.67h6.807l-.58 1.635A2.444 2.444 0 0 0 27.524 27a2.444 2.444 0 0 0 2.297-3.26l-.579-1.634h6.807v-2.447c2.686 0 4.952-2.195 4.952-4.895 0-2.699-2.266-4.894-4.952-4.894Z"/></g><defs><clipPath id="ea"><path fill="currentColor" d="M0 0h41v41H0z"/></clipPath></defs></symbol><symbol fill="none" viewBox="0 0 38 38" id="linkin" xmlns="http://www.w3.org/2000/svg"><path d="M37.75 3.007v31.986a2.757 2.757 0 0 1-2.757 2.757H3.007A2.757 2.757 0 0 1 .25 34.993V3.007A2.757 2.757 0 0 1 3.007.25h31.986a2.757 2.757 0 0 1 2.757 2.757ZM11.28 14.588H5.764v17.647h5.514V14.588Zm.496-6.066A3.176 3.176 0 0 0 8.62 5.324h-.099a3.199 3.199 0 0 0 0 6.397 3.176 3.176 0 0 0 3.254-3.1v-.099Zm20.46 12.993c0-5.305-3.376-7.368-6.729-7.368a6.287 6.287 0 0 0-5.58 2.846h-.155v-2.405h-5.184v17.647h5.515V22.85a3.662 3.662 0 0 1 3.309-3.948h.21c1.753 0 3.055 1.103 3.055 3.882v9.452h5.514l.044-10.72Z" fill="currentColor"/></symbol><symbol fill="none" viewBox="0 0 24 20" id="mail" xmlns="http://www.w3.org/2000/svg"><path d="M20.4.5H3.6a3.62 3.62 0 0 0-2.546 1.043A3.544 3.544 0 0 0 0 4.063v11.875c0 .944.38 1.85 1.054 2.519A3.62 3.62 0 0 0 3.6 19.5h16.8a3.62 3.62 0 0 0 2.546-1.043A3.544 3.544 0 0 0 24 15.937V4.063c0-.945-.38-1.851-1.054-2.52A3.62 3.62 0 0 0 20.4.5Zm-.492 2.375-7.056 6.982a1.202 1.202 0 0 1-.852.352 1.21 1.21 0 0 1-.852-.351L4.092 2.875h15.816ZM21.6 15.938c0 .314-.126.617-.352.84-.225.222-.53.347-.848.347H3.6c-.318 0-.623-.125-.849-.348a1.181 1.181 0 0 1-.351-.84V4.55l7.056 6.983A3.62 3.62 0 0 0 12 12.574a3.62 3.62 0 0 0 2.544-1.042L21.6 4.549v11.389Z" fill="currentColor"/></symbol><symbol fill="none" viewBox="0 0 24 24" id="phone" xmlns="http://www.w3.org/2000/svg"><path d="M21.025 13.238c-.265 0-.542-.084-.807-.145a11.34 11.34 0 0 1-1.577-.47 2.403 2.403 0 0 0-2.987 1.207l-.265.544a14.676 14.676 0 0 1-3.204-2.416 14.71 14.71 0 0 1-2.408-3.213l.506-.338a2.422 2.422 0 0 0 1.204-2.995 12.497 12.497 0 0 1-.47-1.583 8.98 8.98 0 0 1-.144-.821A3.625 3.625 0 0 0 9.62.835 3.606 3.606 0 0 0 7.26 0H3.647A3.604 3.604 0 0 0 .9 1.23a3.626 3.626 0 0 0-.866 2.89 22.975 22.975 0 0 0 6.549 13.36c3.602 3.601 8.299 5.895 13.346 6.52h.458A3.607 3.607 0 0 0 24 20.364v-3.623a3.63 3.63 0 0 0-.862-2.286 3.61 3.61 0 0 0-2.113-1.217Zm.602 7.247a1.21 1.21 0 0 1-.871 1.162c-.17.052-.35.067-.526.046a20.45 20.45 0 0 1-11.907-5.882 20.556 20.556 0 0 1-5.808-11.97 1.32 1.32 0 0 1 .3-.99 1.205 1.205 0 0 1 .904-.41h3.613a1.202 1.202 0 0 1 1.204.953c.049.33.109.657.181.979.14.636.324 1.262.554 1.872l-1.686.785a1.204 1.204 0 0 0-.701 1.147c.006.159.044.315.11.46a17.476 17.476 0 0 0 8.431 8.454c.293.121.622.121.915 0a1.202 1.202 0 0 0 .687-.628l.747-1.69c.622.223 1.258.408 1.902.555.322.072.647.133.976.18a1.204 1.204 0 0 1 .951 1.209l.024 3.768Z" fill="currentColor"/></symbol><symbol fill="none" viewBox="0 0 41 41" id="tea-leaf" xmlns="http://www.w3.org/2000/svg"><path d="M40.985 13.68a1.218 1.218 0 0 0-.845-.997c-5.947-1.768-12.054-.05-16.14 4.544a21.73 21.73 0 0 1 .455 9.917V31c12.42-2.199 9.939-11.355 16.024-16.096.381-.27.579-.748.506-1.225ZM1.02 5.264c-.461.07-.841.406-.972.861-.13.455.01.947.363 1.258 6.682 6.493 1.791 17.138 18.796 20.605v7.803c.063 1.613 2.328 1.611 2.39 0v-8.986C24.25 14.5 13.38 3.11 1.02 5.264Z" fill="currentColor"/></symbol></svg>