<svg width="289" height="40" viewBox="0 0 289 40" fill="none" xmlns="http://www.w3.org/2000/svg">
<path d="M110.997 5.64847V16.5864H98.6822V5.65445H91.8913V34.3635H98.6822V22.8153H111.003V34.3635H117.8V5.64847H110.997ZM142.68 5.64847L135.574 17.0172L128.48 5.64847H120.464L132.191 24.4129V34.3575H138.976V24.4129L150.702 5.64847H142.68ZM172.538 5.64847V26.6866C172.538 27.4884 171.943 28.1286 171.099 28.1286H160.217V5.65445H153.426V34.3635H173.489C175.273 34.3635 176.712 33.825 177.759 32.7779C178.799 31.7248 179.329 30.2827 179.329 28.4936V5.64847H172.538ZM205.689 5.64847H185.62V34.3575H192.399V11.8594H203.305C204.179 11.8594 204.732 12.5535 204.732 13.2954V34.3575H211.523V11.5183C211.523 9.72326 210.988 8.27524 209.959 7.22812C208.901 6.17502 207.473 5.64847 205.689 5.64847ZM237.884 5.64847H217.814V34.3575H237.884C239.668 34.3575 241.095 33.819 242.136 32.7719C243.188 31.7188 243.711 30.2767 243.711 28.4877V11.5183C243.711 9.72326 243.188 8.27524 242.136 7.22812C241.095 6.17502 239.662 5.64847 237.884 5.64847ZM236.926 13.3493V26.6447C236.933 26.8388 236.9 27.0322 236.83 27.2132C236.76 27.3942 236.655 27.5591 236.519 27.6978C236.384 27.8365 236.223 27.9462 236.044 28.0202C235.866 28.0943 235.674 28.1312 235.481 28.1286H224.593V11.8654H235.434C236.326 11.8654 236.921 12.4877 236.921 13.3493M255.545 5.64847C253.761 5.64847 252.322 6.17502 251.281 7.22812C250.235 8.28721 249.717 9.72925 249.717 11.5183V34.3575H256.485V25.4779H268.818V34.3575H275.603V5.64847H255.545ZM268.818 11.8654V19.261H256.485V13.3134C256.485 12.6073 257.032 11.8594 257.935 11.8594L268.818 11.8654ZM282.209 34.3575H289V5.64847H282.209V34.3575ZM38.8069 40C60.244 40 77.6256 31.0426 77.6256 20.003C77.6256 8.95138 60.244 0 38.8069 0C17.3757 0 0 8.9454 0 20.003C0 31.0426 17.3757 40 38.8069 40ZM46.1211 30.181C45.467 31.6948 44.355 34.92 41.798 36.2064C40.983 36.5809 40.1009 36.7844 39.2053 36.8048H38.8128C31.6532 36.8048 24.9813 35.7996 19.4034 34.0942L19.1894 34.0105C18.672 33.8369 18.4104 33.5976 18.4104 33.2984C18.4104 33.0471 18.5471 32.8497 18.7315 32.6642L19.0823 32.353C20.3787 31.276 24.2558 28.4458 31.564 25.6215C34.127 24.6402 37.3381 23.4136 40.6979 22.6956C42.6662 22.2827 49.9744 21.1578 46.1151 30.187M65.7267 10.0224C65.8634 9.7831 66.0478 9.57966 66.3808 9.56171C66.5592 9.54376 66.8089 9.58564 67.1836 9.82498C71.7386 12.6432 74.4443 16.1735 74.4443 19.997C74.4443 26.8841 65.6375 32.8138 53.0368 35.4046C52.2281 35.5662 51.687 35.5602 51.5086 35.3568C51.3778 35.2371 51.3421 35.0097 51.5086 34.7345C51.6025 34.5672 51.7141 34.4107 51.8416 34.2678C58.7039 26.1301 63.9308 14.1212 65.4115 10.6627C65.5304 10.4233 65.6375 10.184 65.7267 10.0224ZM31.6175 9.77113C32.2717 8.26328 33.3837 5.03815 35.9407 3.75767C36.7137 3.36874 37.677 3.18325 38.5274 3.15931H38.9139C46.0854 3.15931 52.7455 4.15258 58.3352 5.86986C58.3768 5.88781 58.5076 5.92969 58.5493 5.95363C59.0607 6.12715 59.3223 6.36649 59.3223 6.65969C59.3223 6.91698 59.1855 7.10845 59.0071 7.28796C58.9239 7.37173 58.8109 7.46746 58.6503 7.5991C57.3659 8.68811 53.4828 11.5123 46.1746 14.3306C43.5998 15.3179 40.3946 16.5445 37.0467 17.2565C35.0725 17.6754 27.7583 18.8003 31.6175 9.77113ZM24.5888 4.57741C25.3975 4.42184 25.9327 4.42184 26.1289 4.62528C26.2479 4.75692 26.2776 4.97233 26.123 5.24159C26.0258 5.40814 25.9122 5.56449 25.784 5.7083C18.9218 13.8519 13.6948 25.8549 12.2022 29.3254C12.0952 29.5647 11.9822 29.804 11.8871 29.9596C11.7562 30.199 11.5719 30.4084 11.2448 30.4263C11.0664 30.4443 10.8107 30.3904 10.4302 30.1571C5.87514 27.3448 3.18138 23.8145 3.18138 19.991C3.18138 13.098 11.9822 7.16829 24.5888 4.5834" fill="white"/>
</svg>
