<svg width="289" height="85" viewBox="0 0 289 85" fill="none" xmlns="http://www.w3.org/2000/svg">
<path d="M56.8843 3.87953C56.1503 6.04189 55.512 7.91806 55.512 8.10886C55.512 8.26785 55.9588 8.49045 56.4694 8.58585L57.4268 8.74484L57.5226 11.8612L57.6183 14.9457H56.1822C54.4589 14.9457 50.8526 15.6771 48.0123 16.5675C45.2678 17.4579 39.8106 20.3198 37.3532 22.1642C34.3853 24.422 29.7578 29.0011 26.375 33.0714C24.6835 35.0748 22.4496 37.5551 21.3964 38.6045C18.7476 41.2121 13.2266 45.2188 10.0352 46.8724C7.4183 48.208 2.82275 49.9251 1.80152 49.9251C1.54621 49.9251 1.38664 49.9887 1.48238 50.0841C1.86534 50.4657 8.15231 49.1937 11.6309 48.049C18.9391 45.6004 23.1198 43.1518 30.2046 37.1735C38.9489 29.7961 45.7784 26.2663 53.8525 24.9626C57.6502 24.3584 57.5864 24.3266 57.5864 25.376C57.5864 26.2345 57.4907 26.2663 55.3205 26.6161C45.7784 28.1107 38.9808 38.2229 41.119 47.7946C42.8104 55.331 48.7144 60.9277 55.9588 61.8817C57.5226 62.0725 57.5864 62.1361 57.5545 63.0901C57.5545 63.9169 57.2034 64.3621 55.4801 65.7612L53.4376 67.4466V74.1245V80.8342L54.7461 79.753C55.4801 79.1806 56.4056 78.4492 56.8205 78.1312L57.5864 77.527V80.4526V83.3781L56.246 82.5831C55.4801 82.1698 42.6828 74.6969 27.7792 66.0156C10.6097 55.9988 0.429234 50.2431 0.0143574 50.3067C-0.432432 50.3703 9.55651 56.4122 28.8642 67.7328C45.0763 77.2726 58.48 85.0317 58.6076 84.9999C58.863 84.9045 115.222 51.8331 116.595 50.9745C117.329 50.4975 117.297 50.4657 114.52 49.7661C108.999 48.3669 104.691 46.1092 99.1059 41.6573C95.755 38.9861 94.4785 37.6823 89.5638 31.863C80.5961 21.3374 71.8199 16.0269 61.6394 15.0093L59.3417 14.7867L59.2459 11.9566C59.1502 8.93564 59.3097 8.58585 60.7139 8.58585C61.0969 8.58585 61.416 8.39505 61.416 8.17245C61.416 7.56827 58.7353 0 58.48 0C58.3843 0 57.6502 1.74897 56.8843 3.87953ZM65.5648 25.4714C72.7773 27.1249 78.3302 30.2413 87.4575 37.8095C92.8828 42.3251 96.2337 44.4556 101.404 46.618C104.787 48.049 110.882 49.7025 114.201 50.1159C115.063 50.2113 115.637 50.4021 115.478 50.5611C115.158 50.8791 59.5331 83.3145 59.3097 83.3145C59.2459 83.3145 59.1821 82.0108 59.1821 80.4526C59.1821 78.8626 59.2778 77.5906 59.4374 77.5906C59.5651 77.5906 60.3948 78.2266 61.3203 79.0216C62.2139 79.8166 63.0436 80.4526 63.1394 80.4526C63.2351 80.4526 63.3309 77.4634 63.3309 73.8065V67.1604L61.2565 65.475C59.6608 64.2031 59.1821 63.5989 59.1821 62.9629C59.1821 62.1997 59.3097 62.1361 61.448 61.7863C69.4263 60.5461 76.2239 53.0097 74.8516 46.936C73.2879 40.0037 65.3733 37.5233 59.9799 42.2615L59.0225 43.0882L59.9799 42.0389C61.6394 40.1627 63.7776 39.3041 66.5222 39.2723C69.0753 39.2723 70.5114 39.8129 72.49 41.4665C73.7985 42.5795 75.1389 45.1552 75.3623 47.1268C75.5537 48.4941 75.6176 48.6849 75.8091 48.0172C76.2239 46.5544 76.0963 41.5301 75.6176 39.6221C73.7985 32.658 67.9902 27.4429 60.8735 26.4571C59.5012 26.2663 59.3417 26.1391 59.2459 25.3442L59.1502 24.422L61.0012 24.6446C62.0224 24.7718 64.0649 25.1216 65.5648 25.4714Z" fill="white"/>
<path d="M142.712 32.8708C142.84 39.2623 142.808 39.7097 142.265 39.9334C141.913 40.0613 139.837 40.253 137.602 40.3489L133.513 40.4767V34.8522V29.2277H136.068H138.624V28.269V27.3103H134.312H130V34.8522V42.3941L135.526 42.2344C138.528 42.1385 141.402 41.9787 141.913 41.8509L142.776 41.6272V45.8136V50H144.213H145.65V42.8096V35.6192H147.247H148.844V42.8096V50H150.25H151.655L151.878 47.9867C151.974 46.9001 152.038 41.5313 151.974 36.0985L151.878 26.1917L150.282 26.0959L148.685 26L148.78 29.7071L148.876 33.3822H147.279H145.65V29.7071V26.032H144.117H142.616L142.712 32.8708Z" fill="white"/>
<path d="M174.156 35.4037L174.311 44.8074L175.742 44.9037L177.173 45L177.36 42.8176C177.484 41.6301 177.578 39.223 177.578 37.4899V34.3767H179.289C180.969 34.3767 181 34.3767 181 33.4139C181 32.451 180.969 32.451 179.289 32.451H177.609L177.516 29.3057L177.422 26.1926L175.711 26.0963L174 26L174.156 35.4037Z" fill="white"/>
<path d="M202 32.5V40H203.491C205.165 40 205.348 39.7391 205.348 37.1304V35.7609H207.174H209V34.7826V33.8043H207.174H205.348V32.0109V30.2174H207.174H209V29.2391V28.2609H207.174H205.348V26.6304V25H203.674H202V32.5Z" fill="white"/>
<path d="M257.794 28.9688L257.951 31.9375H255.091C252.294 31.9375 252.231 31.9375 251.571 31L250.911 30.0625H252.326C253.709 30.0625 253.771 30.0312 253.771 29.125V28.1875H250.943H248.114V27.25C248.114 26.3125 248.083 26.3125 246.386 26.3125C244.689 26.3125 244.657 26.3125 244.657 27.25V28.1875H241.829H239V29.125C239 30.0312 239.063 30.0625 240.446 30.0625H241.86L241.074 31.0625C237.9 35.25 240.98 41 246.386 41C247.926 41 250.346 40.1562 250.754 39.4688C250.911 39.25 252.263 39.125 254.431 39.125H257.857V40.0625C257.857 40.9688 257.889 41 259.429 41H261V33.5V26H259.303H257.637L257.794 28.9688ZM248.24 31.25C250.22 33.0625 250.094 37.1875 247.989 38.6562C246.48 39.7188 244.311 38.9375 243.526 37.0625C241.86 33.0625 245.38 28.7188 248.24 31.25ZM257.857 35.5312V37.25H255.343C252.577 37.25 252.64 37.3125 253.017 34.9688L253.237 33.8125H255.531H257.857V35.5312Z" fill="white"/>
<path d="M285.493 34.4753V42.9507L284.791 43.1397C284.377 43.2658 282.528 43.4233 280.646 43.5493L277.203 43.7384V42.4151V41.1233H275.449H273.696V42.3836V43.6438H270.348H267V44.589V45.5342H274.588C279.913 45.5342 282.655 45.4082 283.835 45.0932L285.493 44.6836V46.826V49H287.055C288.394 49 288.617 48.9055 288.809 48.2753C288.904 47.8973 289 42.7301 289 36.7753V26H287.246H285.493V34.4753Z" fill="white"/>
<path d="M162 27.1461L162.128 28.2922H159.064H156V29.2746C156 30.2243 156.032 30.257 157.628 30.257H159.255L158.298 31.4031C157.181 32.6802 156.798 34.1866 157.053 36.3478C157.245 38.1161 158.266 39.7534 159.926 40.8668C165.957 44.8618 173.202 37.4612 169.053 31.5996L168.128 30.257H169.564C170.936 30.257 171 30.2243 171 29.2746V28.2922H168.128H165.255V27.1461V26H163.564H161.872L162 27.1461ZM164.745 31.0429C168.287 32.5493 167.202 40.0809 163.404 40.0809C161.809 40.0809 160.149 37.6249 160.149 35.2672C160.149 33.7609 161.298 31.5669 162.383 31.0102C163.372 30.4862 163.468 30.4862 164.745 31.0429Z" fill="white"/>
<path d="M274.144 26.9905L274.047 28.0119L271.54 28.1048L269 28.1976V29.0952C269 29.9619 269.065 30.0238 270.335 30.0238H271.67L270.823 30.9524C267.86 34.2952 270.921 38.969 276.098 39C278.279 39 279.647 38.4429 280.949 37.05C282.674 35.1619 282.74 32.7476 281.144 30.9524L280.33 30.0238H281.665C282.935 30.0238 283 29.9619 283 29.0952V28.1667H280.395H277.791V27.0833V26H276.033C274.274 26 274.242 26 274.144 26.9905ZM276.944 30.6429C277.4 30.7976 278.084 31.3857 278.442 31.9429C279.94 34.2643 278.572 37.1429 276 37.1429C274.274 37.1429 272.907 35.6881 272.907 33.831C272.907 32.7167 274.014 31.0143 274.958 30.6429C275.902 30.2714 275.967 30.2714 276.944 30.6429Z" fill="white"/>
<path d="M190.657 27.0972C188.739 27.4434 186.566 28.954 185.703 30.5275C184.489 32.8248 184.872 35.8459 186.662 37.7656C187.716 38.8985 190.337 40 191.999 40C193.597 40 195.898 39.0874 197.048 38.0174C199.221 36.0348 199.637 32.4472 198.007 30.024C196.601 27.9155 193.341 26.6252 190.657 27.0972ZM194.46 30.0869C197.719 33.4542 194.555 39.5909 190.529 37.7027C188.292 36.6327 187.461 32.6989 189.027 30.5904C189.858 29.489 191.615 28.6393 192.606 28.8596C193.085 28.954 193.884 29.5204 194.46 30.0869Z" fill="white"/>
<path d="M216.688 27.9574V28.9149H222.781H228.906L228.812 32.4894L228.719 36.0957L220.375 36.1915L212 36.2553V37.2128V38.1702H217.469H222.938V40.0851V42H224.5H226.062V40.0851V38.1702H231.531H237V37.2128V36.2553H234.156H231.312L231.531 35.3617C231.938 33.766 232.312 30.6702 232.312 28.8191V27H224.5H216.688V27.9574Z" fill="white"/>
<path d="M195.939 42.1573C191.45 43.07 188.943 47.014 190.429 50.8277C191.079 52.4575 191.698 53.142 193.524 54.1199C194.824 54.837 195.474 55 197.548 55C199.684 55 200.241 54.8696 201.604 54.0873C204.235 52.5553 205.442 50.0454 204.854 47.34C204.111 43.7871 199.901 41.3424 195.939 42.1573ZM199.963 44.7975C202.532 46.7207 202.254 51.2841 199.437 52.6857C194.917 54.9348 190.955 48.9046 194.577 45.2539C196.124 43.6893 198.198 43.5263 199.963 44.7975Z" fill="white"/>
<path d="M221.623 43.2891C219.185 44.0808 217 46.7859 217 49.0951C217 50.9424 218.266 52.8887 220.166 53.9774C221.718 54.901 222.193 55 224.599 55C226.752 55 227.544 54.8351 228.557 54.2743C231.311 52.7568 232.483 50.3486 231.818 47.6766C231.406 45.9612 229.412 43.9489 227.512 43.3551C226.087 42.8933 222.984 42.8933 221.623 43.2891ZM227.48 46.2251C228.525 47.3137 228.715 47.7096 228.715 48.8971C228.715 51.5032 227.069 53.1856 224.504 53.1856C220.42 53.1856 218.71 48.1054 222.003 45.7633C222.858 45.1695 223.586 44.9385 224.694 44.9385C226.087 44.9385 226.404 45.0705 227.48 46.2251Z" fill="white"/>
<path d="M246.155 49.4083L246.309 54.8472L253.67 54.9389L261 55V49.5V44H259.299H257.598L257.784 45.6806L258 47.3611H253.763H249.557V45.6806V44H247.794H246L246.155 49.4083ZM257.845 51.0889L257.753 53.0139L253.67 53.1056L249.557 53.1972V51.1806V49.1944H253.732H257.938L257.845 51.0889Z" fill="white"/>
<path d="M163.123 49.5667C163.185 52.1 163.278 54.3667 163.34 54.5667C163.432 54.9 165.191 55 170.747 55H178V54V53H172.136H166.272V49V45H164.636H163L163.123 49.5667Z" fill="white"/>
<path d="M138.706 61.0322C137.412 61.1903 137 62.1705 137 65.111C137 68.336 137.441 69 139.471 69C141.412 69 142 68.0831 142 64.9212C142 63.4668 141.853 62.2653 141.647 61.9491C141.206 61.3168 139.824 60.8741 138.706 61.0322ZM140.647 62.4234C140.941 62.8661 141.118 63.8146 141.118 65.0477C141.118 67.9566 139.882 69.2529 138.412 67.8301C137.706 67.1345 137.647 62.9925 138.353 62.2337C139 61.5065 140.118 61.6013 140.647 62.4234Z" fill="white"/>
<path d="M184.875 61.0565C183.312 61.2773 183 61.9082 183 64.9678C183 67.3335 183.094 67.8382 183.625 68.3744C184.875 69.6361 188 68.8476 188 67.2704C188 66.5449 187.188 66.7027 186.625 67.5859C186.031 68.5006 185.156 68.5952 184.438 67.8697C183.844 67.302 183.719 63.3591 184.25 62.3498C184.75 61.435 186.375 61.5297 186.75 62.539C186.906 62.9806 187.188 63.3276 187.344 63.3276C187.938 63.3276 188.062 62.6652 187.562 61.9397C187.062 61.1512 186.188 60.8673 184.875 61.0565Z" fill="white"/>
<path d="M228.952 61.0761C227.989 61.326 227.297 62.1383 227.297 63.0444C227.297 64.0129 227.839 64.5753 229.645 65.5125C230.758 66.1062 230.939 66.3249 230.849 67.0434C230.788 67.637 230.517 67.9807 229.885 68.1994C229.133 68.4494 228.952 68.3869 228.32 67.637C227.959 67.1684 227.478 66.7935 227.297 66.7935C226.785 66.7935 226.966 67.6995 227.598 68.3556C228.351 69.1367 230.638 69.2304 231.33 68.5118C232.564 67.1996 232.082 65.7937 229.976 64.544C228.381 63.638 227.929 62.9506 228.471 62.2945C229.043 61.6072 230.216 61.6697 230.668 62.4195C231.149 63.2006 231.812 63.2318 231.812 62.4508C231.812 61.451 230.337 60.7637 228.952 61.0761Z" fill="white"/>
<path d="M235.562 61.2018C234.594 61.5188 234.469 61.709 234.375 62.7234C234.281 63.928 234.312 63.9914 236.812 65.6081C237.406 66.0202 237.938 66.6225 238 67.0029C238.219 68.4294 235.531 68.7781 235.094 67.415C234.844 66.5908 234 66.5908 234 67.3833C234 68.2392 235.156 69 236.5 69C238.094 69 239 68.2392 239 66.9395C239 65.7983 238.688 65.4813 236.406 64.245C235.844 63.928 235.375 63.4525 235.312 63.1672C235.031 61.8358 237.125 61.1384 237.75 62.343C238.125 63.0404 239 63.1989 239 62.5649C238.969 61.3286 237.25 60.6312 235.562 61.2018Z" fill="white"/>
<path d="M242.791 61.1854C241.337 61.562 240.864 62.786 241.033 65.5164C241.202 68.2782 241.777 69 243.907 69C245.8 69 246.578 68.2782 246.882 66.2068C247.457 62.2838 245.902 60.3694 242.791 61.1854ZM245.293 62.1583C245.935 62.7546 245.834 67.2739 245.158 67.8702C244.482 68.5292 243.197 68.4979 242.622 67.8702C242.013 67.1797 241.979 63.0057 242.622 62.3152C243.163 61.6875 244.718 61.6248 245.293 62.1583Z" fill="white"/>
<path d="M249.812 61.0395C248.438 61.1974 248 62.1765 248 65.1139C248 67.3248 248.094 67.8302 248.625 68.3671C249.844 69.5989 253 68.904 253 67.388C253 66.5668 252.438 66.6299 251.688 67.5775C251 68.4934 250.156 68.5882 249.438 67.8617C248.844 67.2932 248.719 63.3452 249.25 62.3344C249.75 61.4185 251.344 61.5132 251.812 62.524C252.219 63.4399 253 63.5978 253 62.745C253 61.5448 251.625 60.8184 249.812 61.0395Z" fill="white"/>
<path d="M276.588 61.1671C275.294 61.5462 275 62.2094 275 64.9257C275 68.0841 275.588 69 277.529 69C279.559 69 280 68.3367 280 65.1152C280 63.3149 279.853 62.3042 279.559 61.8304C279.059 61.0724 277.853 60.7881 276.588 61.1671ZM278.824 62.3358C278.971 62.6832 279.118 63.915 279.118 65.0836C279.118 67.4208 278.647 68.3683 277.471 68.3683C276.441 68.3683 275.882 67.2313 275.882 65.052C275.882 62.7464 276.412 61.7357 277.647 61.7357C278.206 61.7357 278.618 61.9567 278.824 62.3358Z" fill="white"/>
<path d="M130 65C130 68.296 130.102 69 130.508 69C130.88 69 131.015 68.488 131.083 66.824L131.185 64.68L132.877 66.824C134.129 68.424 134.773 68.968 135.382 69C136.127 69 136.16 68.936 135.686 68.424C135.416 68.136 134.569 67.144 133.791 66.248L132.403 64.616L134.096 62.824C135.483 61.32 135.686 61 135.145 61C134.739 61 133.859 61.672 133.046 62.6C132.268 63.464 131.489 64.2 131.32 64.2C131.151 64.2 131.015 63.464 131.015 62.6C131.015 61.384 130.88 61 130.508 61C130.068 61 130 61.672 130 65Z" fill="white"/>
<path d="M145 65C145 68.328 145.064 69 145.477 69C145.858 69 145.953 68.584 145.953 67.08V65.16H147.065C148.336 65.16 148.813 65.8 148.813 67.56C148.813 68.296 148.972 68.776 149.289 68.904C149.575 69 149.861 69.032 149.925 68.936C150.243 68.616 149.48 65.32 149.003 64.968C148.495 64.616 148.495 64.552 149.067 64.392C149.829 64.136 150.147 63.112 149.766 62.12C149.416 61.224 148.845 61 146.716 61H145V65ZM148.431 62.024C148.654 62.248 148.813 62.696 148.813 63.08C148.813 64.04 148.209 64.52 147.002 64.52C145.985 64.52 145.953 64.488 145.953 63.08C145.953 61.672 145.985 61.64 147.002 61.64C147.574 61.64 148.209 61.8 148.431 62.024Z" fill="white"/>
<path d="M152.099 64.9249L152.199 68.8821L154.616 68.9786C156.57 69.0429 157 68.9786 157 68.5603C157 68.1743 156.603 68.0778 155.179 68.0778H153.358V66.63V65.1823H155.013C155.94 65.1823 156.669 65.0215 156.669 64.8606C156.669 64.6676 155.94 64.5389 155.013 64.5389H153.358V63.0912V61.6434H155.179C156.172 61.6434 157 61.4826 157 61.3217C157 61.1287 155.94 61 154.517 61H152L152.099 64.9249Z" fill="white"/>
<path d="M158.378 64.6956C157.605 66.7027 157 68.5186 157 68.6779C157 69.3469 157.907 68.9009 158.243 68.0088C158.613 67.1168 158.714 67.0531 160.528 67.0531C162.309 67.0531 162.443 67.085 162.746 68.0088C162.947 68.5186 163.317 68.9646 163.586 68.9646C164.258 68.9646 164.224 68.9327 162.645 64.7274C161.435 61.5097 161.133 61 160.494 61C159.856 61 159.554 61.5097 158.378 64.6956ZM162.04 66.0018C162.04 66.0655 161.334 66.0973 160.494 66.0973C159.386 66.0973 158.982 65.9699 159.083 65.6832C159.184 65.492 159.52 64.5363 159.856 63.5805L160.461 61.8602L161.234 63.8991C161.67 65.0142 162.04 65.9699 162.04 66.0018Z" fill="white"/>
<path d="M170.78 61.2132C170.619 61.5028 168 68.6782 168 68.9035C168 68.9678 168.226 69 168.517 69C168.776 69 169.164 68.5495 169.326 68.0347C169.649 67.1016 169.778 67.0694 171.524 67.0694C173.27 67.0694 173.367 67.1337 173.722 68.0347C173.916 68.5817 174.337 69 174.628 69C175.242 69 175.242 69.0322 173.496 64.3344C172.559 61.8568 172.106 61.0845 171.621 61.0202C171.265 60.9558 170.877 61.0523 170.78 61.2132ZM172.332 63.9804C172.623 64.8492 172.85 65.6858 172.85 65.8467C172.85 65.9754 172.203 66.1041 171.427 66.1041H170.004L170.683 64.0126C171.071 62.8542 171.459 62.0176 171.589 62.1785C171.686 62.3072 172.041 63.1116 172.332 63.9804Z" fill="white"/>
<path d="M176 65C176 68.296 176.09 69 176.449 69C176.748 69 176.898 68.52 176.958 67.144C177.048 65.416 177.078 65.32 177.886 65.224C179.083 65.064 179.502 65.576 179.741 67.432C179.921 68.68 180.071 69 180.52 69C180.969 69 181.059 68.84 180.969 68.264C180.879 67.88 180.759 67.048 180.639 66.376C180.55 65.736 180.25 65.128 179.981 65.032C179.562 64.84 179.562 64.744 180.131 64.328C180.939 63.72 180.999 62.248 180.25 61.544C179.861 61.16 179.143 61 177.856 61H176V65ZM179.322 61.96C180.071 62.408 180.071 63.752 179.293 64.2C178.933 64.392 178.305 64.52 177.856 64.456C177.227 64.392 177.018 64.168 176.958 63.464C176.898 62.952 176.928 62.344 177.018 62.088C177.197 61.576 178.484 61.48 179.322 61.96Z" fill="white"/>
<path d="M190 65C190 68.328 190.059 69 190.441 69C190.794 69 190.882 68.584 190.882 67.08V65.16H192.353H193.794L193.882 66.984C193.941 68.456 194.088 68.872 194.5 68.936C194.941 69.032 195 68.68 195 65.032C195 61.224 194.971 61 194.412 61C193.882 61 193.824 61.224 193.824 62.76V64.52H192.353H190.882V62.76C190.882 61.416 190.794 61 190.441 61C190.059 61 190 61.672 190 65Z" fill="white"/>
<path d="M197 65V69H199C200.6 69 201 68.904 201 68.52C201 68.136 200.629 68.04 199.429 68.04H197.857V66.6V65.16H199.286C200.086 65.16 200.714 65 200.714 64.84C200.714 64.648 200.086 64.52 199.286 64.52H197.857V63.08V61.64H199.429C200.286 61.64 201 61.48 201 61.32C201 61.128 200.143 61 199 61H197V65Z" fill="white"/>
<path d="M204 65C204 68.328 204.062 69 204.469 69C204.844 69 204.937 68.584 204.937 67.08V65.16H205.968C207.218 65.16 207.749 65.64 207.749 66.728C207.749 68.104 208.093 69 208.624 69C208.999 69 209.062 68.712 208.905 67.368C208.78 66.44 208.499 65.48 208.249 65.192C207.812 64.712 207.843 64.616 208.374 64.264C209.249 63.72 209.187 62.152 208.312 61.512C207.874 61.192 206.937 61 205.812 61H204V65ZM207.562 62.152C208.624 63.208 207.687 64.616 206.062 64.456C205.25 64.392 205.062 64.2 205 63.464C204.937 62.952 204.969 62.344 205.062 62.088C205.281 61.48 206.968 61.512 207.562 62.152Z" fill="white"/>
<path d="M210.924 63.56C211.78 65.416 212.105 66.504 212.105 67.56C212.105 68.616 212.223 69 212.547 69C212.872 69 212.99 68.616 212.99 67.4C212.99 66.184 213.255 65.224 214.022 63.56C215.202 61.032 215.202 61 214.612 61C214.347 61 213.816 61.832 213.344 62.984L212.518 65L211.662 62.984C211.072 61.576 210.688 61 210.305 61C209.803 61 209.862 61.288 210.924 63.56Z" fill="white"/>
<path d="M220.346 64.6923C219.624 66.7294 219 68.5119 219 68.671C219 69.3713 219.952 68.862 220.281 68.0026C220.576 67.0795 220.707 67.0477 222.448 67.0477C224.188 67.0477 224.319 67.0795 224.615 68.0026C224.845 68.6073 225.206 68.9575 225.6 68.9575C226.158 68.9575 226.158 68.862 225.436 66.9522C225.009 65.87 224.319 64.0875 223.925 62.9735C223.301 61.3501 223.039 61 222.448 61C221.791 61 221.528 61.4774 220.346 64.6923ZM223.137 63.6101C223.433 64.5331 223.761 65.488 223.86 65.679C223.958 65.9655 223.564 66.0928 222.448 66.0928C221.331 66.0928 220.937 65.9655 221.036 65.679C221.134 65.488 221.463 64.5331 221.758 63.6101C222.087 62.7188 222.382 61.9549 222.448 61.9549C222.513 61.9549 222.809 62.7188 223.137 63.6101Z" fill="white"/>
<path d="M255 65.0579C255 68.7293 255.051 69.0835 255.463 68.9869C255.85 68.8903 255.901 68.4072 255.978 64.929C256.03 61.161 256.03 61 255.515 61C255.026 61 255 61.1932 255 65.0579Z" fill="white"/>
<path d="M260.522 61.3338C257.836 68.6522 257.736 68.9398 258.234 68.9398C258.532 68.9398 258.93 68.4924 259.129 67.9811C259.494 67.0862 259.594 67.0223 261.385 67.0223C263.176 67.0223 263.308 67.0543 263.64 67.9811C263.939 68.812 265 69.3872 265 68.6842C265 68.5563 264.37 66.7986 263.574 64.7853C262.413 61.7173 262.048 61.0781 261.418 61.0142C261.02 60.9503 260.622 61.1101 260.522 61.3338ZM261.584 65.9997C260.887 66.0636 260.224 66.0316 260.124 65.9358C259.959 65.8079 260.887 62.7399 261.285 62.1008C261.385 61.909 261.783 62.708 262.181 63.8585L262.91 65.9038L261.584 65.9997Z" fill="white"/>
<path d="M265 61.322C265 61.483 265.533 61.644 266.167 61.644H267.3L267.4 65.2506C267.5 68.4064 267.567 68.8894 268.1 68.986C268.6 69.0826 268.667 68.7606 268.667 65.3794V61.644H269.833C270.467 61.644 271 61.483 271 61.322C271 61.1288 269.767 61 268 61C266.233 61 265 61.1288 265 61.322Z" fill="white"/>
<path d="M272 65C272 68.328 272.067 69 272.5 69C272.933 69 273 68.328 273 65C273 61.672 272.933 61 272.5 61C272.067 61 272 61.672 272 65Z" fill="white"/>
<path d="M283 65C283 68.296 283.095 69 283.474 69C283.821 69 283.947 68.328 284.011 65.544L284.105 62.12L285.842 65.544C287.263 68.424 287.674 69 288.274 69C289 69 289 68.936 289 65C289 61.672 288.937 61 288.526 61C288.147 61 288.053 61.608 288.021 64.424V67.88L286.284 64.424C284.8 61.448 284.484 61 283.789 61H283V65Z" fill="white"/>
</svg>
