<svg width="128" height="147" viewBox="0 0 128 147" fill="none" xmlns="http://www.w3.org/2000/svg">
<g clip-path="url(#clip0_557_1925)">
<path fill-rule="evenodd" clip-rule="evenodd" d="M6.28503 97.3887C5.82515 98.0777 4.98204 98.4606 4.29221 98.8434C3.4491 99.2262 2.68263 99.609 1.99281 100.221V93.7902H3.90898C4.98204 93.7902 6.13174 94.0965 6.51497 95.1684C6.74491 95.934 6.74491 96.7762 6.28503 97.3887ZM6.43832 92.4887C5.51856 92.0293 4.44551 91.9527 3.4491 91.9527H0V104.739H1.99281C1.99281 104.05 1.91617 103.284 2.22276 102.595C2.75928 101.523 3.90898 100.987 4.90539 100.528C5.97844 99.9918 7.20479 99.4559 7.97126 98.4606C8.58443 97.5418 8.81437 96.3168 8.58443 95.2449C8.35449 94.0199 7.51138 93.0246 6.43832 92.4887ZM21.0012 99.9918C19.8515 98.8434 18.012 98.384 16.4024 98.6137V96.5465C16.4024 96.1637 16.4024 95.7809 16.479 95.3981C16.6323 94.709 17.2455 94.0965 17.9353 93.8668C18.7018 93.6371 19.5449 93.7137 20.1581 94.1731C20.7713 94.6324 21.0778 95.3981 21.0778 96.1637C21.0778 96.7762 21.0778 97.3887 21.0778 98.0012V100.145C21.0778 100.068 21.0778 99.9918 21.0012 99.9918ZM21.0012 92.3356C19.315 91.3402 16.7856 91.6465 15.4826 93.1777C14.8695 93.8668 14.4862 94.8621 14.4096 95.7809C14.4096 96.0106 14.4096 104.739 14.4096 104.739H16.4024V100.528C17.5521 100.375 18.8551 100.528 19.8515 101.217C20.6946 101.829 21.0778 102.825 21.0778 103.896V104.815H23.0707V96.2402C23.0707 94.6324 22.4575 93.1777 21.0012 92.3356ZM33.5713 93.8668C34.8743 93.8668 36.1006 94.4793 36.2539 95.8574C36.3305 96.5465 36.1772 97.159 35.7174 97.6949C35.2575 98.2309 34.491 98.6137 33.8778 98.9199C33.1114 99.3027 32.2683 99.6856 31.6551 100.298V93.8668H33.5713ZM36.6371 99.9918C36.4072 99.8387 36.1772 99.7621 35.9473 99.6855C36.5605 99.3027 37.1737 98.9199 37.6335 98.3074C38.0168 97.7715 38.2467 97.159 38.3234 96.4699C38.4766 95.0918 38.0168 93.7137 36.8671 92.8715C35.3341 91.7231 33.418 91.8762 31.5784 91.8762H29.6623V104.662H31.6551C31.6551 104.279 31.6551 103.896 31.6551 103.514C31.6551 102.671 32.0383 101.829 32.8048 101.37C33.5713 100.911 34.491 100.911 35.2575 101.217C36.024 101.6 36.5605 102.289 36.6371 103.131C36.7138 103.59 36.6371 104.126 36.6371 104.586H38.6299C38.6299 103.896 38.6299 103.131 38.4766 102.442C38.4 101.523 37.6335 100.604 36.6371 99.9918ZM44.915 93.7902C45.5281 93.6371 46.218 93.5606 46.9078 93.484V91.9527H44.915V93.7902ZM44.915 94.9387V104.815H46.9078V94.6324C46.218 94.6324 45.6048 94.709 44.915 94.9387ZM60.1677 98.6137C59.4778 98.0777 58.6347 97.7715 57.7916 97.3887C57.0251 97.0824 56.1054 96.7762 55.5689 96.1637C55.0323 95.5512 55.1856 94.6324 55.7222 94.0965C56.2587 93.5605 57.1784 93.4074 57.8683 93.6371C58.7114 93.8668 59.1713 94.6324 59.1713 95.4746H61.1641C61.1641 94.5559 60.8575 93.6371 60.2443 92.948C59.6311 92.259 58.788 91.8762 57.8683 91.7996C56.9485 91.6465 55.9521 91.7996 55.109 92.259C54.3425 92.7184 53.6527 93.4074 53.4228 94.2496C53.1928 95.0918 53.1928 96.0871 53.6527 96.8527C54.1126 97.6949 54.9557 98.2309 55.8754 98.6137C56.7952 98.9965 57.9449 99.2262 58.788 99.8387C59.0946 100.068 59.4012 100.375 59.4779 100.834C59.5545 101.217 59.5545 101.676 59.3245 102.059C58.8647 102.978 57.715 103.284 56.7952 103.054C55.7222 102.901 54.9557 101.982 54.9557 100.911H53.0395C53.0395 101.982 53.3461 102.901 54.1126 103.667C54.879 104.432 55.8755 104.815 56.8719 104.892C57.9449 104.968 59.0946 104.739 59.9377 104.126C60.7808 103.514 61.3174 102.671 61.394 101.676C61.4707 100.528 61.0874 99.3793 60.1677 98.6137ZM78.7162 98.9199C79.176 98.384 79.5593 97.7715 79.8659 97.159C80.1725 96.5465 80.2491 95.8574 80.1725 95.1684C80.0192 93.8668 79.0994 92.7949 77.9497 92.259C76.7234 91.7231 75.2671 91.7231 74.0407 92.3356C72.8144 92.9481 71.9713 94.0965 71.8946 95.4746C71.818 96.8527 72.4311 98.0777 73.5808 98.9199L74.7305 97.4652C74.3473 97.0824 74.0407 96.6231 73.8874 96.0871C73.8108 95.5512 73.8874 95.0152 74.194 94.5559C74.8072 93.7137 76.1102 93.4074 77.1066 93.9434C77.5665 94.173 77.9497 94.6324 78.1796 95.0918C78.3329 95.6277 78.2563 96.2402 78.0264 96.6996C77.7964 97.2356 77.4132 97.6184 77.1066 98.0777L73.121 103.054L71.6647 104.815H80.6323V102.978H75.497L78.7162 98.9199ZM96.9581 100.221C96.1916 102.059 94.3521 103.207 92.3593 103.054C90.4431 102.978 88.7569 101.6 88.2204 99.7621C87.6838 97.8481 88.297 95.7809 89.9066 94.5559C91.5162 93.3309 93.6623 93.3309 95.3485 94.4027C97.1114 95.7043 97.8012 98.1543 96.9581 100.221ZM97.418 93.7137C95.4252 91.7996 92.3593 91.2637 89.8299 92.4121C87.3006 93.6371 85.7677 96.2402 85.9976 99.073C86.2275 101.829 88.297 104.126 90.903 104.815C93.5856 105.504 96.4982 104.509 98.1078 102.212C99.7174 99.9152 99.6407 96.6996 97.9545 94.4793C97.8012 94.173 97.6479 93.9434 97.418 93.7137ZM111.981 98.9199C112.441 98.384 112.824 97.7715 113.131 97.159C113.437 96.5465 113.514 95.8574 113.437 95.1684C113.284 93.8668 112.364 92.7949 111.214 92.259C109.988 91.7231 108.532 91.7231 107.305 92.3356C106.079 92.9481 105.236 94.0965 105.159 95.4746C105.083 96.8527 105.696 98.0777 106.846 98.9199L107.995 97.4652C107.612 97.0824 107.305 96.6231 107.152 96.0871C107.075 95.5512 107.152 95.0152 107.459 94.5559C108.072 93.7137 109.375 93.4074 110.371 93.9434C110.831 94.173 111.214 94.6324 111.444 95.0918C111.598 95.6277 111.521 96.2402 111.291 96.6996C111.061 97.2356 110.678 97.6184 110.371 98.0777L106.386 103.054L104.929 104.815H113.897V102.978H108.762L111.981 98.9199ZM126.007 95.3981V99.7621C125.087 99.0731 123.861 98.9199 122.865 98.3074C122.022 97.7715 121.715 96.9293 121.715 95.934C121.715 95.0152 121.715 92.0293 121.715 92.0293H119.722V96.0105C119.722 97.3887 120.029 98.6902 121.178 99.609C121.868 100.145 122.711 100.451 123.478 100.757C124.244 100.987 125.011 101.37 125.471 101.982C125.854 102.442 125.931 103.054 125.931 103.667V104.892H127.847V95.5512C127.923 95.3981 126.007 95.3981 126.007 95.3981Z" fill="white"/>
<path fill-rule="evenodd" clip-rule="evenodd" d="M68.4476 70.1278C67.3745 69.7449 65.535 69.6684 63.9254 70.9699C62.3925 69.6684 60.553 69.7449 59.4033 70.1278C58.4835 70.434 57.7937 70.6637 56.4141 70.6637C58.4069 74.7981 63.3889 76.559 67.5278 74.5684C69.2141 73.7262 70.5937 72.3481 71.4368 70.6637C70.1338 70.6637 69.3674 70.434 68.4476 70.1278Z" fill="white"/>
<path fill-rule="evenodd" clip-rule="evenodd" d="M63.9215 0C41.3107 0 22.9922 18.2984 22.9922 40.8844C22.9922 60.2547 36.482 76.4859 54.5706 80.6969C40.161 73.0406 34.3359 55.4312 41.2341 40.6547C42.3838 46.6266 46.2928 51.7562 51.8114 54.3594C44.4533 37.0563 49.8952 16.6906 65.2245 5.43594C62.2353 15.6953 66.8341 25.1125 76.7215 32.2328C88.0652 40.3484 88.5251 56.9625 78.5611 65.9203C82.6233 65.0016 86.3024 62.7047 88.985 59.4891C87.2988 68.2937 81.7802 76.1797 73.3491 80.6969C91.4377 76.4859 104.928 60.2547 104.928 40.8844C104.851 18.2984 86.5323 0 63.9215 0ZM99.179 77.6344C98.5658 77.6344 98.106 77.8641 97.9527 78.3234C97.7227 77.9406 97.2628 77.6344 96.7263 77.6344H96.4964V80.6203H96.8796V77.9406C97.4161 77.9406 97.7994 78.3234 97.7994 78.9359V79.7016H98.1826V78.9359C98.1826 78.3234 98.5658 77.9406 99.1024 77.9406V80.6203H99.4856V77.6344C99.3323 77.6344 99.179 77.6344 99.179 77.6344ZM93.8137 78.0172H94.5802V80.6969H94.9634V78.0172H95.7299V77.6344H93.8137V78.0172Z" fill="white"/>
<path fill-rule="evenodd" clip-rule="evenodd" d="M30.3516 126.862C30.3516 121.043 35.027 116.449 40.8522 116.449C46.6773 116.449 51.3528 121.12 51.3528 126.862C51.3528 131.379 48.5168 135.207 44.5312 136.738C44.5312 136.585 44.5312 136.509 44.5312 136.355C44.5312 135.666 44.6845 134.901 44.7611 134.288C47.4438 132.834 49.2833 130.077 49.2833 126.862C49.2833 122.268 45.5276 118.44 40.8522 118.44C36.1767 118.44 32.421 122.191 32.421 126.862C32.421 131.532 36.1767 135.284 40.8522 135.284C41.0055 135.284 41.2354 135.284 41.4653 135.207C41.3887 135.59 41.3887 135.973 41.3887 136.355C41.3887 136.738 41.3887 136.968 41.3887 137.351C41.2354 137.351 41.0055 137.351 40.8522 137.351C35.027 137.351 30.3516 132.68 30.3516 126.862Z" fill="white"/>
<path fill-rule="evenodd" clip-rule="evenodd" d="M87.1505 137.351C81.8619 137.351 77.5697 133.599 76.7266 128.546H76.8799C77.5697 128.699 78.3361 128.929 78.9493 129.159L79.1026 129.312C80.1757 132.757 83.3948 135.284 87.2272 135.284C91.826 135.284 95.5816 131.532 95.5816 126.862C95.5816 122.268 91.826 118.44 87.2272 118.44C82.9349 118.44 79.3325 121.655 78.8727 125.79C78.5661 125.713 78.1828 125.637 77.8763 125.56C77.5697 125.484 77.1864 125.407 76.8799 125.407C77.5697 120.354 81.9385 116.449 87.3038 116.449C93.1289 116.449 97.7278 121.12 97.7278 126.862C97.5745 132.68 92.899 137.351 87.1505 137.351Z" fill="white"/>
<path fill-rule="evenodd" clip-rule="evenodd" d="M62.8511 134.596C62.0846 134.443 61.3948 134.213 60.6284 133.907L60.4751 133.83C59.4786 130.385 56.1828 127.859 52.4271 127.859C52.2739 127.859 52.0439 127.859 51.8906 127.859C51.8906 127.476 51.8906 127.17 51.8906 126.787C51.8906 126.404 51.8906 126.098 51.8906 125.715C52.0439 125.715 52.2739 125.715 52.4271 125.715C57.7158 125.791 62.008 129.62 62.8511 134.596Z" fill="white"/>
<path fill-rule="evenodd" clip-rule="evenodd" d="M41.9219 136.279C41.9219 131.762 44.7578 127.934 48.7434 126.402C48.7434 126.555 48.7434 126.709 48.7434 126.785C48.7434 127.474 48.5901 128.163 48.4368 128.776C45.7542 130.23 43.9913 133.063 43.9913 136.202C43.9913 140.873 47.747 144.624 52.3458 144.624C56.638 144.624 60.1638 141.409 60.7003 137.351C61.3901 137.504 62.08 137.734 62.7698 137.734C62.08 142.787 57.7111 146.691 52.3458 146.691C46.674 146.768 41.9219 142.098 41.9219 136.279Z" fill="white"/>
<path fill-rule="evenodd" clip-rule="evenodd" d="M85.9214 134.596C85.155 134.443 84.4651 134.213 83.7753 133.907L83.622 133.83C82.549 130.385 79.3298 127.859 75.5741 127.859C75.3442 127.859 75.1909 127.859 74.9609 127.859C75.0376 127.476 75.0376 127.17 75.0376 126.787C75.0376 126.404 75.0376 126.098 74.9609 125.715C75.1142 125.715 75.3442 125.715 75.5741 125.715C80.7861 125.791 85.155 129.62 85.9214 134.596Z" fill="white"/>
<path fill-rule="evenodd" clip-rule="evenodd" d="M65.0781 136.279C65.0781 131.762 67.9141 127.934 71.8997 126.402C71.8997 126.555 71.8997 126.709 71.8997 126.785C71.8997 127.474 71.823 128.163 71.6697 128.776C68.9871 130.23 67.1476 133.063 67.1476 136.202C67.1476 140.873 70.9033 144.624 75.5787 144.624C79.8709 144.624 83.3967 141.409 83.9332 137.351C84.5464 137.504 85.3129 137.734 86.0027 137.734C85.2362 142.787 80.8674 146.691 75.5787 146.691C69.7536 146.768 65.0781 142.098 65.0781 136.279Z" fill="white"/>
<path fill-rule="evenodd" clip-rule="evenodd" d="M53.6562 125.331C54.3461 120.202 58.7149 116.297 64.0802 116.297C69.9054 116.297 74.5808 121.044 74.5808 126.786C74.5808 131.303 71.7449 135.131 67.7592 136.663V136.509C67.7592 136.356 67.7592 136.356 67.7592 136.203C67.7592 135.591 67.9125 134.902 67.9892 134.289L68.0658 134.213C70.7485 132.758 72.5113 129.925 72.5113 126.786C72.5113 122.116 68.7557 118.364 64.0802 118.364C59.788 118.364 56.2622 121.58 55.7257 125.714C55.3425 125.561 55.0359 125.484 54.6527 125.408C54.3461 125.408 53.8862 125.331 53.6562 125.331Z" fill="white"/>
<path fill-rule="evenodd" clip-rule="evenodd" d="M53.6562 128.469C54.4227 128.622 55.1892 128.852 55.879 129.158L56.0323 129.234C57.1054 132.68 60.3245 135.206 64.0802 135.206C64.2335 135.206 64.4634 135.206 64.6934 135.206C64.6167 135.589 64.6167 135.895 64.6167 136.278C64.6167 136.661 64.6167 136.891 64.6934 137.273C64.5401 137.273 64.3101 137.35 64.0802 137.35C58.7916 137.35 54.4227 133.522 53.6562 128.469Z" fill="white"/>
</g>
<defs>
<clipPath id="clip0_557_1925">
<rect width="128" height="147" fill="white"/>
</clipPath>
</defs>
</svg>
