<svg width="216" height="58" viewBox="0 0 216 58" fill="none" xmlns="http://www.w3.org/2000/svg">
<path fill-rule="evenodd" clip-rule="evenodd" d="M35.2188 9.30063C38.0716 7.13535 40.6346 3.32894 43.728 0.886791C46.391 2.30824 48.8111 3.97395 51 5.8729C46.6027 10.8129 41.8578 15.2357 36.9206 20.2073C34.9742 22.1674 32.9756 26.0656 28.8756 24.7254C27.3107 24.2143 25.2672 21.559 23.9245 20.2073C19.2299 15.4795 14.1762 10.4166 10 5.8729C12.1386 3.92329 14.6149 2.31426 17.2715 0.886791C20.3445 3.60931 22.8935 6.85848 26.0905 9.45662C26.3719 7.18049 25.714 5.37985 26.0905 3.37959C26.9611 -1.24237 34.4025 -1.15861 35.2188 3.84706C35.4952 5.54136 35.0245 6.84845 35.2188 9.30063Z" fill="white"/>
<path fill-rule="evenodd" clip-rule="evenodd" d="M100.822 10.7503C90.663 10.0229 86.3648 17.1607 85.9877 25.7331C85.6207 34.0787 89.1528 42.4954 97.4224 43.3422C100.37 43.644 102.764 43.1483 104.839 42.2607C104.54 41.5437 103.482 40.8267 102.521 39.9436C102.021 39.4842 99.8702 38.0417 99.8946 37.4723C99.911 37.086 100.903 36.4495 101.285 36.0821C101.815 35.5739 102.502 35.1478 102.83 34.8464C103.393 34.3318 104.993 32.0395 105.612 32.0664C105.774 32.0733 106.434 33.0653 106.694 33.302C108.188 34.6664 109.182 35.3387 110.556 36.5455C115.332 25.7241 112.24 11.5678 100.822 10.7503ZM118.437 43.3422C120.051 45.2805 122.144 46.7418 124 48.4394C122.211 50.4104 120.165 52.1234 118.283 54C116.164 52.3596 114.283 50.4806 112.256 48.7482C106.107 52.9379 95.3442 52.6266 89.2324 50.2926C82.7386 47.8134 78.1673 42.3179 76.2528 35.4645C71.6407 18.9493 80.058 3.32013 96.6494 2.10041C112.897 0.905548 122.924 10.4818 123.691 25.1155C124.073 32.4025 122.199 38.8243 118.437 43.3422Z" fill="white"/>
<path fill-rule="evenodd" clip-rule="evenodd" d="M138.135 50V17.3417C143.811 26.1465 150.024 36.7401 155.795 46.1804C156.499 47.3326 157.483 49.3407 158.255 50H169V3H159.019C158.661 13.4357 158.968 24.5381 158.866 35.2309C152.171 24.5788 145.965 13.4367 139.056 3H128.307C128.114 3.06305 127.993 3.19858 128 3.46219V50H138.135Z" fill="white"/>
<path fill-rule="evenodd" clip-rule="evenodd" d="M184.342 30.8699V42.4873C190.662 41.8889 200.712 44.0688 203.777 40.1942C204.835 38.8578 205.527 35.9221 204.549 33.6216C202.321 28.382 191.623 31.1248 184.496 30.4113C184.316 30.4369 184.328 30.6529 184.342 30.8699ZM184.342 12.9855V22.4628C189.714 21.7213 198.333 23.8525 202.081 21.3926C203.63 20.376 204.621 17.7881 203.623 15.4311C201.558 10.5502 191.086 13.2812 184.496 12.5269C184.316 12.5525 184.328 12.7685 184.342 12.9855ZM174.161 4.11981C188.412 5.06509 208.344 0.800774 213.341 10.8455C216.008 16.2066 213.836 24.3367 208.405 25.6726C211.169 27.0008 213.43 28.3648 214.729 30.8699C216.697 34.6619 216.17 40.114 214.575 43.2515C209.216 53.7981 189.189 50.3059 174.007 50.8944V4.57793C173.993 4.36093 173.981 4.14491 174.161 4.11981Z" fill="white"/>
<path fill-rule="evenodd" clip-rule="evenodd" d="M3.10136 40.7557C5.71799 37.6392 9.06845 35.2481 11.8331 32.2784H0.450604C-0.161264 29.5792 -0.0854702 26.0737 0.2945 23.1839H11.677C9.37714 20.32 5.79127 17.3915 3.10136 14.3986C4.34919 11.5217 6.13058 9.17278 8.09067 7C12.3507 11.1575 17.484 16.1312 22.4362 21.0265C24.6096 23.1745 27.8326 25.0754 26.8021 28.8875C26.3267 30.644 23.8757 32.5508 22.4362 33.9739L10.5858 45.6877C10.1562 46.1124 8.38932 47.9964 8.24677 47.9999C7.53401 48.0173 5.91726 45.3007 5.44041 44.609C4.46715 43.1979 3.73732 41.9584 3.10136 40.7557Z" fill="white"/>
<path fill-rule="evenodd" clip-rule="evenodd" d="M57.9476 14.2443C55.2928 17.4684 52.0296 20.0888 49.2451 23.184H60.5895C61.2243 25.9948 61.0418 29.4061 60.5895 32.278H49.4007C51.5148 35.0626 55.753 37.8967 57.7921 40.7557C56.6214 43.6018 54.758 45.7612 52.975 48C48.5437 43.8296 43.7037 38.8048 38.9888 34.1277C36.9742 32.1296 32.807 29.7579 34.3263 25.8043C34.8791 24.3664 37.2423 22.4496 38.6776 21.0261C43.365 16.3768 48.5763 11.4329 52.8195 7C54.9886 8.95893 56.4594 11.61 57.9476 14.2443Z" fill="white"/>
<path fill-rule="evenodd" clip-rule="evenodd" d="M51 50.0646C48.7179 51.8166 46.5265 53.6592 43.7284 54.8918C40.5314 52.3995 38.2642 48.9719 35.2186 46.3272V57.6944C32.3543 58.0438 28.9261 58.1561 26.0902 57.6944V46.4831C23.2413 48.6506 20.121 52.7244 17.2716 54.8918C14.4307 53.7018 12.2373 51.8612 10 50.0646C14.0143 45.5141 19.0188 40.8318 23.6149 36.2061C25.5887 34.2196 28.2328 29.6626 32.2791 31.3789C33.835 32.0386 35.7958 34.4512 37.2302 35.8943C41.9419 40.6363 46.5778 45.271 51 50.0646Z" fill="white"/>
</svg>
