<svg width="270" height="41" viewBox="0 0 270 41" fill="none" xmlns="http://www.w3.org/2000/svg">
<path d="M0 29.8557V26.9344H10.369V30.6501C10.361 31.1382 10.459 31.6224 10.6564 32.0701C10.8539 32.5177 11.1462 32.9184 11.5137 33.2452C11.8812 33.572 12.3153 33.8173 12.7869 33.9646C13.2585 34.1119 13.7566 34.1578 14.2476 34.0992C15.0865 34.2115 15.9375 34.0086 16.6319 33.5306C17.3263 33.0527 17.8133 32.3346 17.9965 31.5187C18.2741 30.5841 18.2505 29.5875 17.929 28.6667C15.9221 23.6852 2.20932 21.4302 0.467306 13.6658C0.112649 11.9601 0.0906198 10.2034 0.402401 8.48956C1.47201 2.255 7.02256 0 13.9127 0C19.3984 0 26.9583 1.26075 26.9583 9.61962V12.341H17.3266V9.95275C17.3557 9.48201 17.2812 9.01064 17.1082 8.57103C16.9352 8.13141 16.6679 7.73397 16.3245 7.40601C15.9812 7.07806 15.5699 6.82736 15.1191 6.67115C14.6683 6.51494 14.1885 6.45691 13.7128 6.50106C12.9005 6.41278 12.0843 6.63026 11.4274 7.11005C10.7704 7.58984 10.3211 8.29662 10.1691 9.08919C10.0608 9.75093 10.0837 10.4271 10.2366 11.0803C11.3711 15.5236 26.0237 17.9144 27.6307 25.9428C28.0324 28.0234 28.0543 30.1582 27.6956 32.2465C26.7584 38.6117 21.0054 41 14.0503 41C6.74997 41 0 38.4119 0 29.8557ZM125.632 29.725V26.8037H135.869V30.4528C135.853 30.9365 135.943 31.418 136.133 31.8643C136.323 32.3107 136.608 32.7113 136.969 33.0387C137.33 33.3662 137.759 33.6129 138.225 33.7619C138.692 33.9108 139.185 33.9586 139.672 33.9019C140.504 34.0242 141.351 33.8326 142.046 33.3651C142.74 32.8977 143.23 32.189 143.419 31.3804C143.696 30.4676 143.673 29.4916 143.354 28.5924C141.412 23.6852 127.831 21.4174 126.095 13.6658C125.739 11.9827 125.716 10.2478 126.027 8.55619C127.104 2.38825 132.663 0.13325 139.413 0.13325C144.834 0.13325 152.323 1.46062 152.323 9.68625V12.341H142.759V10.0194C142.79 9.55443 142.719 9.08845 142.551 8.65304C142.383 8.21763 142.122 7.82297 141.786 7.49584C141.449 7.1687 141.046 6.91674 140.603 6.75704C140.159 6.59734 139.686 6.53364 139.215 6.57025C138.418 6.46587 137.61 6.67005 136.962 7.14005C136.314 7.61005 135.874 8.30942 135.737 9.09175C135.627 9.75331 135.649 10.4296 135.802 11.0828C136.871 15.5262 151.378 17.8504 152.996 25.8095C153.397 27.8678 153.419 29.9806 153.061 32.0466C152.124 38.417 146.438 40.7386 139.561 40.7386C132.325 40.7438 125.632 38.1479 125.632 29.725ZM162.293 31.1216C162.199 30.2835 162.178 29.4392 162.228 28.5975V1.1275H171.994V29.4559C171.982 29.9437 172.003 30.4318 172.059 30.9166C172.277 31.7154 172.756 32.421 173.421 32.9242C174.086 33.4274 174.901 33.7001 175.739 33.7001C176.577 33.7001 177.392 33.4274 178.057 32.9242C178.723 32.421 179.201 31.7154 179.419 30.9166C179.477 30.4319 179.5 29.9438 179.487 29.4559V1.1275H189.259V28.5924C189.259 29.3227 189.191 30.7167 189.191 31.1164C188.524 38.2914 182.836 40.5977 175.746 40.5977C168.656 40.5977 162.962 38.2786 162.293 31.1164V31.1216ZM242.705 30.7218C242.606 29.8807 242.561 29.0342 242.57 28.1875V12.0745C242.57 11.4108 242.635 10.2167 242.703 9.55044C243.573 2.38825 249.393 0.13325 256.283 0.13325C263.109 0.13325 269.126 2.38825 269.799 9.553C269.879 10.3919 269.901 11.2352 269.864 12.0771V13.325H260.097V11.2135C260.099 10.7236 260.054 10.2347 259.965 9.75287C259.708 8.94401 259.196 8.23717 258.504 7.73532C257.812 7.23347 256.976 6.96284 256.117 6.96284C255.258 6.96284 254.422 7.23347 253.73 7.73532C253.038 8.23717 252.526 8.94401 252.27 9.75287C252.157 10.3439 252.112 10.9457 252.137 11.5466V29.0588C252.126 29.5466 252.148 30.0346 252.205 30.5194C252.436 31.388 252.974 32.1466 253.722 32.6586C254.47 33.1706 255.378 33.4025 256.283 33.3125C257.173 33.4059 258.066 33.1739 258.793 32.6605C259.52 32.147 260.032 31.3879 260.229 30.5271C260.319 30.0455 260.342 29.5541 260.297 29.0664V23.4853H256.351V17.9119H269.999V28.1875C270.008 29.03 269.963 29.8722 269.864 30.709C269.196 37.6739 263.114 40.1287 256.283 40.1287C249.453 40.1287 243.373 37.6816 242.705 30.7167V30.7218ZM106.569 39.4061L106.309 3.97956L99.6113 39.4061H89.8447L83.2193 3.97956L82.9597 39.4061H73.3202L74.1224 1.19412H89.8447L94.728 31.0498L99.6113 1.19412H115.331L116.201 39.4061H106.569ZM55.1914 39.4061L49.9731 3.97956L44.6199 39.4061H34.186L41.2786 1.19412H58.4729L65.5656 39.4061H55.1914ZM218.689 39.0089L208.989 7.23137L209.524 39.0064H200.022V1.19412H214.337L223.424 31.9774L222.902 1.19412H232.469V39.0115L218.689 39.0089Z" fill="white"/>
</svg>
