<svg width="175" height="49" viewBox="0 0 175 49" fill="none" xmlns="http://www.w3.org/2000/svg">
<g clip-path="url(#clip0_557_1801)">
<path fill-rule="evenodd" clip-rule="evenodd" d="M137.408 19.6256C139.012 19.3138 150.125 19.6256 152.685 19.6256C155.163 19.4418 157.654 19.5369 160.112 19.9091C170.943 22.7438 170.859 39.7519 159.127 41.8779C157.383 42.1897 146.467 41.8779 143.823 41.8779C141.343 42.0449 138.853 41.9404 136.395 41.5661C134.915 41.1268 133.54 40.3854 132.355 39.3879C131.171 38.3903 130.204 37.158 129.512 35.7675C128.821 34.377 128.421 32.8581 128.337 31.3052C128.253 29.7523 128.487 28.1986 129.025 26.7407C129.644 24.8834 130.759 23.234 132.248 21.9738C133.737 20.7136 135.542 19.8913 137.465 19.5973L137.408 19.6256ZM174.854 32.8352C175.234 29.8428 174.87 26.8021 173.795 23.9866C172.719 21.1711 170.966 18.6692 168.693 16.7059C166.537 14.8643 163.968 13.58 161.209 12.9641C157.646 12.5087 154.048 12.3854 150.462 12.5956H139.209C136.08 12.5223 132.992 13.3271 130.291 14.92C127.818 16.4311 125.734 18.5092 124.208 20.985C122.683 23.4609 121.759 26.2647 121.513 29.1682C121.266 32.0716 121.703 34.9928 122.788 37.6939C123.874 40.3951 125.577 42.7998 127.759 44.7126C133.385 49.5599 138.843 48.8512 145.961 48.8512H157.214C161.616 48.9121 165.879 47.2962 169.149 44.3267C172.42 41.3572 174.457 37.2531 174.854 32.8352ZM68.9037 17.4996C69.6178 19.1759 70.565 20.7412 71.717 22.1485L80.579 35.2447C82.2108 37.8243 84.4614 41.5377 86.3745 44.0039C87.4215 45.5946 88.8556 46.8884 90.54 47.7618C92.2244 48.6352 94.1029 49.059 95.9961 48.9929C97.8094 48.8359 99.558 48.238 101.092 47.2506C102.625 46.2631 103.898 44.9156 104.802 43.3236C106.715 40.4889 108.656 37.6542 110.682 34.5927L121.035 19.1437C121.49 18.5496 121.756 17.8304 121.798 17.0808C121.84 16.3312 121.655 15.5865 121.268 14.9449C120.881 14.3033 120.31 13.7949 119.631 13.4869C118.951 13.1788 118.195 13.0855 117.462 13.2192C116.63 13.5218 115.871 13.9957 115.231 14.6106C114.592 15.2256 114.087 15.9682 113.748 16.7909L107.868 25.5785C105.927 28.4131 103.958 31.4462 101.988 34.3093C100.976 35.7833 100.075 37.144 99.1751 38.6747C98.2749 40.2054 97.037 42.0763 94.8145 41.5094C93.2204 40.724 91.9401 39.414 91.1853 37.7959L88.3719 33.4305C86.4026 30.5958 84.5177 27.7612 82.464 24.6997C80.4102 21.6382 78.6378 19.0303 76.5841 15.9689C76.2573 15.0626 75.6401 14.2918 74.83 13.7785C74.0199 13.2651 73.0632 13.0384 72.1109 13.1342C71.6085 13.1918 71.1233 13.3529 70.6854 13.6076C70.2475 13.8622 69.8663 14.2049 69.5655 14.6144C69.2646 15.0239 69.0507 15.4913 68.9368 15.9877C68.823 16.484 68.8117 16.9987 68.9037 17.4996ZM0.0615429 17.4146C0.745457 19.1064 1.6954 20.6761 2.87487 22.0634L14.6627 39.5251C17.4761 43.9472 20.2894 49.2197 27.1258 48.9929C33.3151 48.7662 35.8752 43.5503 39.0262 38.8448L47.8881 25.7485C48.8165 24.3312 49.8293 22.9138 50.8421 21.3831C52.175 20.032 52.9749 18.2387 53.0928 16.3374C53.0246 15.8445 52.8587 15.3704 52.605 14.9433C52.3514 14.5163 52.0151 14.1449 51.6162 13.8514C51.2173 13.5579 50.7639 13.3482 50.2829 13.2347C49.802 13.1212 49.3033 13.1063 48.8165 13.1909C47.9731 13.4604 47.1998 13.9157 46.5527 14.5237C45.9055 15.1316 45.4007 15.877 45.0748 16.7059C43.0211 19.739 41.1924 22.4036 39.1668 25.5785C37.1412 28.7533 35.2844 31.2478 33.2588 34.0825C32.2179 35.5849 31.3458 36.9172 30.4455 38.4479C30.1132 39.3226 29.528 40.0766 28.7655 40.6123C28.0031 41.148 27.0987 41.4408 26.1692 41.4527C24.5116 40.73 23.1854 39.4039 22.4556 37.7392C17.5886 30.7376 12.5246 23.0556 7.7138 15.8838C7.38018 14.9882 6.76555 14.2267 5.96327 13.7151C5.161 13.2034 4.21491 12.9696 3.26874 13.0492C2.76638 13.1068 2.28115 13.2679 1.84325 13.5225C1.40534 13.7772 1.02412 14.1199 0.723301 14.5294C0.422479 14.9388 0.208489 15.4063 0.0946435 15.9026C-0.0192023 16.399 -0.0304695 16.9136 0.0615429 17.4146ZM60.2668 13.2192C56.6657 13.9846 57.2565 17.0744 57.2565 20.9296V42.5865C56.9977 44.2128 57.2228 45.8798 57.9036 47.3772C58.2928 47.9519 58.8345 48.4048 59.4668 48.6844C60.0991 48.964 60.7966 49.059 61.4799 48.9585C62.1632 48.858 62.8047 48.5662 63.3314 48.1162C63.858 47.6662 64.2486 47.0762 64.4586 46.4134C64.7962 45.2795 64.6274 32.24 64.6274 30.3407V19.4839C64.8796 17.8695 64.6647 16.2161 64.0085 14.7216C63.6157 14.124 63.0561 13.657 62.4002 13.3796C61.7443 13.1021 61.0215 13.0266 60.3231 13.1625L60.2668 13.2192ZM60.4637 0.0663084C59.9373 0.414814 59.4873 0.868226 59.1415 1.39861L56.3281 4.06321C54.6401 5.73567 56.0468 6.50104 58.2131 8.57036L59.5353 9.90266C61.2515 11.6318 61.8985 10.3562 64.1492 8.08846C67.3001 5.05535 67.1876 5.73567 62.3205 0.831673C62.1435 0.510363 61.8631 0.259439 61.5256 0.120299C61.188 -0.0188408 60.8135 -0.037885 60.4637 0.0663084Z" fill="white"/>
</g>
<defs>
<clipPath id="clip0_557_1801">
<rect width="175" height="49" fill="white"/>
</clipPath>
</defs>
</svg>
